<?xml version="1.0" ?><svg id="Layer_1_1_" style="enable-background:new 0 0 64 64;" version="1.1" viewBox="0 0 64 64" xml:space="preserve" xmlns="http://www.w3.org/2000/svg" xmlns:xlink="http://www.w3.org/1999/xlink"><path d="M34.499,30.332l1.002,1.731C37.659,30.814,39,28.491,39,26c0-3.86-3.141-7-7-7s-7,3.14-7,7c0,2.35,1.17,4.531,3.129,5.833  l1.107-1.665C27.836,29.237,27,27.679,27,26c0-2.757,2.243-5,5-5s5,2.243,5,5C37,27.779,36.042,29.439,34.499,30.332z" fill="#dadada" /><path d="M19,26c0,4.364,2.172,8.414,5.811,10.833l1.107-1.665C22.839,33.12,21,29.693,21,26c0-6.065,4.935-11,11-11s11,4.935,11,11  c0,3.693-1.839,7.12-4.918,9.167l1.107,1.666C42.828,34.414,45,30.364,45,26c0-7.168-5.832-13-13-13S19,18.832,19,26z" fill="#413b70"/><path d="M56,27c0-0.7-0.031-1.403-0.092-2.088l-1.992,0.177C53.972,25.715,54,26.358,54,27c0,7.714-3.934,14.734-10.523,18.777  l1.047,1.705C51.71,43.072,56,35.416,56,27z" fill="#413b70 "/><path d="M32,5c4.446,0,8.729,1.323,12.385,3.825l1.129-1.65C41.524,4.443,36.852,3,32,3c-2.869,0-5.678,0.501-8.348,1.491  l0.695,1.875C26.794,5.459,29.369,5,32,5z" fill="#413b70 "/><path d="M9.492,18.652C8.502,21.319,8,24.128,8,27c0,8.418,4.291,16.074,11.478,20.478l1.045-1.705C13.934,41.735,10,34.717,10,27  c0-2.634,0.46-5.208,1.367-7.652L9.492,18.652z" fill="#413b70 "/><path d="M37,42c0-2.419-1.718-4.436-4-4.899V29c1.163-0.413,2-1.512,2-2.816c0-1.657-1.343-3-3-3s-3,1.343-3,3  c0,1.304,0.837,2.403,2,2.816v8.101c-2.282,0.463-4,2.48-4,4.899c0,2.761,2.239,5,5,5S37,44.761,37,42z" fill="#413b70 "/><path d="M23,51v11h18V51c0-2.209-1.612-4-3.6-4H32h-5.4C24.612,47,23,48.791,23,51z" fill="#413b70 "/><path d="M61,15c0-4.418-3.582-8-8-8s-8,3.582-8,8s3.582,8,8,8S61,19.418,61,15z M53,22c-1.955,0-3.72-0.803-4.99-2.095  C48.061,17.741,49.823,16,52,16h1c-1.657,0-3-1.343-3-3s1.343-3,3-3s3,1.343,3,3s-1.343,3-3,3h1c2.177,0,3.939,1.741,3.99,3.905  C56.72,21.197,54.955,22,53,22z" fill="#413b70 "/><path d="M15,18c4.418,0,8-3.582,8-8s-3.582-8-8-8s-8,3.582-8,8S10.582,18,15,18z M14,11h1c-1.657,0-3-1.343-3-3s1.343-3,3-3  s3,1.343,3,3s-1.343,3-3,3h1c2.177,0,3.939,1.741,3.99,3.905C18.72,16.197,16.955,17,15,17c-1.955,0-3.72-0.803-4.99-2.095   C10.061,12.741,11.823,11,14,11z" fill="#dadada"/></svg>