<?xml version="1.0" ?><!DOCTYPE svg  PUBLIC '-//W3C//DTD SVG 1.1//EN'  'http://www.w3.org/Graphics/SVG/1.1/DTD/svg11.dtd'><svg height="128px" id="Layer_1" style="enable-background:new 0 0 128 128;" version="1.1" viewBox="0 0 128 128" width="128px" xml:space="preserve" xmlns="http://www.w3.org/2000/svg" xmlns:xlink="http://www.w3.org/1999/xlink"><g><path d="M88.893,80.247H51.12c-0.828,0-1.5-0.671-1.5-1.5s0.672-1.5,1.5-1.5h37.772   c0.828,0,1.5,0.671,1.5,1.5S89.721,80.247,88.893,80.247z" style="fill:#EE3E36;"/></g><g><path d="M92.258,69.215H47.754c-0.828,0-1.5-0.671-1.5-1.5s0.672-1.5,1.5-1.5h44.504   c0.828,0,1.5,0.671,1.5,1.5S93.086,69.215,92.258,69.215z" style="fill:#EE3E36;"/></g><g><path d="M96.143,58.185H43.869c-0.828,0-1.5-0.671-1.5-1.5s0.672-1.5,1.5-1.5h52.273   c0.828,0,1.5,0.671,1.5,1.5S96.971,58.185,96.143,58.185z" style="fill:#EE3E36;"/></g><g><path d="M91.983,89.071H47.201c-3.439,0-6.869-2.592-7.809-5.9l-9.774-34.425   c-0.273-0.271-0.442-0.648-0.442-1.064c0-0.121,0.015-0.238,0.041-0.35l-1.673-5.891c-0.572-2.016-2.826-3.72-4.922-3.72H9.66   c-0.828,0-1.5-0.671-1.5-1.5s0.672-1.5,1.5-1.5h12.962c3.439,0,6.869,2.592,7.809,5.9l1.578,5.56h73.512   c1.801,0,3.36,0.735,4.279,2.018c0.918,1.282,1.113,2.995,0.535,4.699l-10.324,30.419C98.915,86.544,95.39,89.071,91.983,89.071z    M32.86,49.182l9.419,33.169c0.572,2.016,2.826,3.72,4.922,3.72h44.782c2.091,0,4.514-1.737,5.186-3.717l10.324-30.419   c0.269-0.789,0.221-1.495-0.133-1.988c-0.353-0.493-1.007-0.765-1.84-0.765H32.86z" style="fill:#313335;"/></g><g><path d="M54.515,107.836c-4.555,0-8.261-3.706-8.261-8.26s3.706-8.26,8.261-8.26s8.26,3.706,8.26,8.26   S59.069,107.836,54.515,107.836z M54.515,94.316c-2.9,0-5.261,2.36-5.261,5.26s2.36,5.26,5.261,5.26s5.26-2.36,5.26-5.26   S57.415,94.316,54.515,94.316z" style="fill:#EE3E36;"/></g><g><path d="M85.498,107.836c-4.555,0-8.261-3.706-8.261-8.26s3.706-8.26,8.261-8.26s8.26,3.706,8.26,8.26   S90.053,107.836,85.498,107.836z M85.498,94.316c-2.9,0-5.261,2.36-5.261,5.26s2.36,5.26,5.261,5.26s5.26-2.36,5.26-5.26   S88.398,94.316,85.498,94.316z" style="fill:#EE3E36;"/></g><rect height="128" id="_x3C_Slice_x3E__1_" style="fill:none;" width="128" x="-1.5" y="1.5"/></svg>